# xmcd
# 
# Track frame offsets:
#     150
#     17774
#     33307
#     52617
#     69084
#     89840
#     104910
#     122591
#     149069
#     165594
#     181453
#     197568
#     222995
#     238827
#     254315
# 
# Disc length: 3746
# 
# Revision: 1
# Processed by: cddbd v1.5.2PL0 Copyright (c) Steve Scherf et al.
# Submitted via: fre:ac v1.0.27
# 
DISCID=d90ea00f
DTITLE=Various Artist - Anni '80 CD2
DYEAR=2014
DGENRE=Italian Pop
TTITLE0=Albert One - Secrets
TTITLE1=Goran Kuzminac - Ehi Ci Stai
TTITLE2=Pupo - Firenze Santa Maria Novella
TTITLE3=Nino Buonocore - Scrivimi
TTITLE4=Ivana Spagna - Call Me (original alike)
TTITLE5=Ivan Cattaneo - Polisex
TTITLE6=Ryan Paris - La Dolce Vita
TTITLE7=Ronnie H Jones - Video Games
TTITLE8=Christian - Cara
TTITLE9=Bobby Solo - Non Posso Perderti
TTITLE10=Ricchi e Poveri - Sara Perche Ti Amo
TTITLE11=Pitura Freska - Pin Floi
TTITLE12=Alberto Camerini - Tanz Bambolina
TTITLE13=Ken Laszlo - Tonight
TTITLE14=Gino Vannelli - Wild Horses
EXTD=3 CD Special Edition
EXTT0=
EXTT1=
EXTT2=
EXTT3=
EXTT4=
EXTT5=
EXTT6=
EXTT7=
EXTT8=
EXTT9=
EXTT10=
EXTT11=
EXTT12=
EXTT13=
EXTT14=
PLAYORDER=
